<svg xmlns="http://www.w3.org/2000/svg" version="1.1" xmlns:xlink="http://www.w3.org/1999/xlink" xmlns:svgjs="http://svgjs.com/svgjs" width="1980" height="1080" preserveAspectRatio="none" viewBox="0 0 1980 1080"><g mask="url(&quot;#SvgjsMask1084&quot;)" fill="none"><rect width="1980" height="1080" x="0" y="0" fill="rgba(16, 20, 27, 1)"></rect><path d="M0,632.723C132.785,651.619,289.024,696.468,393.706,612.619C499.441,527.927,437.607,348.348,503.093,229.755C577.314,95.344,791.384,39.176,795.12,-114.321C798.716,-262.089,626.814,-348.476,519.642,-450.272C422.48,-542.56,322.229,-625.789,199.644,-679.924C62.477,-740.499,-86.691,-827.268,-229.332,-781.032C-371.764,-734.864,-434.992,-573.192,-516.705,-447.727C-588.134,-338.053,-676.087,-227.901,-674.814,-97.024C-673.594,28.446,-572.371,124.023,-510.085,232.948C-454.075,330.898,-416.536,440.352,-327.728,509.954C-234.013,583.402,-117.88,615.948,0,632.723" fill="#0d1016"></path><path d="M1980 1777.237C2106.88 1758.1019999999999 2187.454 1639.6280000000002 2290.5969999999998 1563.298 2385.799 1492.844 2492.034 1441.1779999999999 2562.618 1346.0729999999999 2645.598 1234.2649999999999 2727.176 1111.498 2729.23 972.277 2731.417 824.077 2669.261 678.8399999999999 2574.139 565.175 2478.14 450.462 2345.105 364.702 2198.015 337.50800000000004 2057.489 311.528 1921.272 373.236 1786.052 419.475 1656.604 463.741 1506.351 489.423 1427.281 601.066 1349.512 710.871 1406.452 861.84 1379.399 993.647 1349.9299999999998 1137.228 1215.509 1268.937 1261.6509999999998 1408.059 1307.519 1546.356 1473.144 1600.432 1602.737 1667.033 1721.6680000000001 1728.155 1847.777 1797.1770000000001 1980 1777.237" fill="#131820"></path></g><defs><mask id="SvgjsMask1084"><rect width="1980" height="1080" fill="#ffffff"></rect></mask></defs></svg>